<?xml version="1.0" standalone="no"?>
<!DOCTYPE svg PUBLIC "-//W3C//DTD SVG 20010904//EN"
 "http://www.w3.org/TR/2001/REC-SVG-20010904/DTD/svg10.dtd">
<svg version="1.0" xmlns="http://www.w3.org/2000/svg"
 width="1024.000000pt" height="1024.000000pt" viewBox="0 0 1024.000000 1024.000000"
 preserveAspectRatio="xMidYMid meet">

<g transform="translate(0.000000,1024.000000) scale(0.100000,-0.100000)"
fill="#000000" stroke="none">
<path d="M7888 9341 c-23 -16 -39 -37 -44 -56 -8 -40 -65 -132 -107 -175 -18
-20 -267 -204 -553 -409 -984 -710 -1240 -911 -1159 -911 27 0 29 -30 4 -57
-38 -41 -207 -176 -439 -353 -279 -211 -280 -213 -280 -267 0 -70 56 -103 125
-71 28 13 33 33 10 42 -35 13 -39 10 415 319 80 54 231 149 335 212 105 62
260 161 345 219 85 58 199 135 253 171 53 37 113 69 132 72 30 5 35 3 40 -18
3 -13 -1 -50 -9 -81 l-13 -58 23 0 c20 0 24 -5 24 -30 0 -79 33 -10 131 277
59 171 135 323 163 323 21 0 36 -23 36 -53 0 -16 -49 -180 -109 -365 -160
-492 -261 -835 -261 -888 0 -8 16 -31 36 -51 34 -34 36 -38 30 -83 -8 -63 -74
-289 -185 -643 -50 -157 -91 -301 -91 -319 0 -49 24 -78 64 -78 19 0 44 8 56
18 21 17 22 19 5 36 -17 16 -16 22 19 109 20 51 72 189 115 307 88 238 147
382 193 474 38 75 78 169 130 306 22 58 44 114 49 125 22 49 96 267 319 933
226 673 237 712 214 706 -29 -8 -31 8 -9 111 8 38 15 91 15 116 0 25 5 60 11
78 6 18 10 33 8 35 -2 2 -21 -9 -41 -23z"/>
<path d="M2280 9352 c0 -12 19 -26 26 -19 2 2 -2 10 -11 17 -9 8 -15 8 -15 2z"/>
<path d="M2378 9268 c10 -18 33 -58 50 -88 18 -32 148 -410 307 -889 357
-1076 478 -1416 525 -1474 l18 -22 10 25 c5 14 19 34 31 44 19 17 23 18 36 5
17 -17 77 -168 161 -403 92 -257 108 -275 138 -153 l19 74 -27 99 c-14 54 -35
133 -46 174 -22 80 -41 167 -66 295 -26 135 -113 484 -162 645 -9 30 -16 57
-17 60 -2 7 -63 204 -91 291 -14 42 -27 99 -31 127 l-6 52 30 0 c42 0 100 -33
307 -176 379 -263 719 -486 749 -491 28 -4 24 0 -36 52 -37 31 -67 60 -67 66
0 5 -3 8 -7 8 -20 -3 -26 2 -13 11 13 8 12 10 -4 10 -16 0 -17 2 -5 16 11 14
11 18 -4 29 -23 17 -22 28 3 20 11 -4 20 -2 20 4 0 6 6 11 14 11 7 0 30 11 50
25 39 27 94 33 114 13 9 -9 12 -9 12 0 0 14 46 6 68 -11 8 -7 12 -5 12 7 0 13
8 15 36 12 l37 -5 -44 37 c-23 20 -61 53 -83 73 -156 137 -527 418 -1036 786
-168 121 -397 287 -510 368 -305 221 -437 305 -478 305 l-34 0 20 -32z"/>
<path d="M2310 9173 c0 -31 71 -254 328 -1028 227 -684 308 -915 322 -915 10
0 0 45 -38 155 -16 50 -103 313 -192 585 -90 272 -178 536 -196 587 -18 51
-35 103 -38 117 -3 14 -21 70 -40 123 -20 54 -38 108 -41 121 -5 28 -82 238
-95 261 -8 14 -9 13 -10 -6z"/>
<path d="M4999 6957 c-41 -29 -209 -152 -374 -273 -165 -121 -432 -316 -593
-433 -161 -117 -301 -225 -312 -238 -12 -15 -20 -41 -20 -62 0 -38 490 -1522
511 -1547 6 -8 15 -14 19 -14 11 0 28 44 35 91 5 38 -8 87 -103 374 -233 704
-333 1014 -339 1049 -7 43 0 52 81 109 33 24 156 113 271 198 116 85 361 264
545 398 184 134 347 255 362 269 20 18 33 23 52 18 30 -7 36 1 38 50 2 44 -20
64 -68 64 -23 0 -53 -15 -105 -53z"/>
<path d="M6680 5835 c-14 -7 -31 -24 -38 -37 -26 -49 -442 -1314 -442 -1343 0
-17 6 -40 14 -51 14 -18 15 -18 45 10 44 42 59 85 411 1136 33 96 64 176 69
178 5 2 19 -2 30 -8 18 -9 21 -8 22 12 3 62 -7 93 -36 106 -33 15 -44 15 -75
-3z"/>
<path d="M3333 5742 c-59 -43 -297 -216 -528 -383 -231 -168 -559 -406 -730
-529 -170 -123 -336 -243 -367 -267 -67 -51 -88 -95 -66 -140 17 -36 36 -39
92 -12 36 17 44 24 36 35 -9 9 -6 16 12 27 13 8 50 31 83 52 61 38 239 166
705 510 146 107 386 284 534 392 148 108 299 223 335 255 98 87 111 138 36
138 -25 0 -59 -18 -142 -78z"/>
<path d="M910 4177 c-36 -13 -85 -37 -110 -53 l-45 -29 110 -6 c61 -4 783 -4
1606 -1 l1497 5 47 35 c39 28 45 36 34 47 -11 10 -319 14 -1544 19 l-1530 6
-65 -23z"/>
<path d="M7378 4190 l-1248 -5 -25 -25 c-20 -20 -126 -331 -510 -1483 l-484
-1458 -6 -107 c-3 -59 -8 -119 -10 -133 -2 -15 2 -35 10 -45 12 -17 16 -12 49
59 19 43 146 418 282 835 135 416 261 802 279 857 18 55 124 377 235 715 110
338 207 631 213 650 l13 35 1644 2 c905 2 1666 3 1693 3 33 0 47 4 47 13 0 31
-42 51 -143 69 -130 23 -364 25 -2039 18z"/>
<path d="M4349 4161 c-21 -22 -29 -39 -29 -66 0 -20 82 -285 184 -598 102
-309 253 -771 336 -1026 170 -524 173 -531 194 -531 13 0 16 12 16 53 0 28 4
67 9 85 10 34 4 55 -329 1062 -250 755 -300 911 -300 930 0 20 9 20 639 20
569 0 640 2 652 16 7 8 30 24 51 35 41 21 47 33 22 43 -9 3 -331 6 -716 6
l-700 0 -29 -29z"/>
</g>
</svg>
