<svg id="svg" version="1.1" xmlns="http://www.w3.org/2000/svg" xmlns:xlink="http://www.w3.org/1999/xlink" width="400" height="400" viewBox="0, 0, 400,400"><g id="svgg"><path id="path0" d="M104.883 0.410 C 103.594 0.575,101.396 0.762,100.000 0.827 C 98.604 0.892,96.886 1.176,96.183 1.458 C 95.480 1.740,94.074 2.004,93.058 2.044 C 92.042 2.085,90.771 2.343,90.234 2.619 C 89.697 2.895,88.856 3.121,88.365 3.123 C 87.874 3.124,87.041 3.408,86.513 3.754 C 85.985 4.100,85.305 4.288,85.002 4.171 C 84.699 4.055,84.126 4.206,83.729 4.507 C 83.333 4.807,82.534 5.059,81.956 5.066 C 81.377 5.073,80.277 5.448,79.511 5.900 C 78.745 6.352,77.867 6.625,77.561 6.508 C 77.254 6.390,76.569 6.635,76.038 7.053 C 75.507 7.471,74.774 7.813,74.409 7.813 C 74.044 7.813,73.079 8.340,72.266 8.984 C 71.393 9.676,70.322 10.156,69.656 10.156 C 68.968 10.156,67.995 10.609,67.173 11.312 C 66.429 11.948,65.532 12.475,65.180 12.484 C 64.421 12.503,60.428 15.412,58.856 17.090 C 58.134 17.862,57.496 18.204,57.013 18.077 C 56.137 17.848,54.203 19.661,37.126 36.730 C 20.382 53.466,18.359 55.620,18.359 56.727 C 18.359 57.285,17.798 58.199,16.961 59.005 C 15.024 60.870,12.891 63.834,12.891 64.661 C 12.891 65.039,12.257 66.122,11.483 67.068 C 10.616 68.125,10.146 69.060,10.261 69.499 C 10.365 69.896,9.950 70.955,9.325 71.884 C 8.708 72.803,8.203 73.853,8.203 74.217 C 8.203 74.581,7.852 75.197,7.422 75.586 C 6.955 76.008,6.641 76.789,6.641 77.525 C 6.641 78.203,6.383 79.098,6.067 79.515 C 5.752 79.932,5.488 80.723,5.481 81.273 C 5.474 81.823,5.211 82.614,4.895 83.031 C 4.580 83.448,4.316 84.114,4.309 84.511 C 4.302 84.908,4.048 85.787,3.744 86.464 C 3.440 87.141,3.098 88.223,2.984 88.867 C 2.345 92.496,1.572 96.153,1.380 96.464 C 1.258 96.661,1.084 97.845,0.994 99.095 C 0.903 100.345,0.655 103.652,0.444 106.445 C 0.065 111.442,0.098 114.320,0.596 119.727 C 1.201 126.283,1.260 126.712,2.165 131.055 C 3.419 137.070,3.835 138.530,4.926 140.754 C 5.225 141.363,5.474 142.329,5.481 142.903 C 5.488 143.476,5.752 144.287,6.067 144.704 C 6.383 145.121,6.641 145.934,6.641 146.511 C 6.641 147.088,6.904 147.779,7.227 148.047 C 7.549 148.314,7.812 148.882,7.813 149.308 C 7.813 149.734,8.340 150.863,8.984 151.818 C 9.629 152.773,10.156 153.993,10.156 154.529 C 10.156 155.065,10.601 155.979,11.145 156.560 C 11.689 157.141,12.243 158.045,12.377 158.568 C 12.795 160.198,13.471 161.219,15.756 163.671 C 17.316 165.344,17.969 166.356,17.969 167.101 C 17.969 168.773,231.325 382.031,232.998 382.031 C 233.886 382.031,234.711 382.570,236.513 384.327 C 237.947 385.726,239.568 386.882,240.661 387.286 C 241.647 387.651,242.914 388.376,243.476 388.897 C 244.037 389.418,244.946 389.844,245.494 389.844 C 246.042 389.844,247.219 390.371,248.109 391.016 C 248.999 391.660,250.018 392.188,250.375 392.188 C 250.731 392.187,251.364 392.446,251.781 392.761 C 252.198 393.076,252.989 393.340,253.539 393.347 C 254.088 393.354,254.879 393.617,255.296 393.933 C 255.713 394.248,256.582 394.518,257.227 394.531 C 257.871 394.545,258.740 394.814,259.157 395.130 C 259.574 395.445,260.287 395.703,260.742 395.703 C 261.197 395.703,261.911 395.961,262.328 396.277 C 262.745 396.592,263.581 396.856,264.186 396.863 C 264.791 396.869,265.642 397.066,266.078 397.299 C 266.514 397.532,267.743 397.804,268.809 397.903 C 269.875 398.002,271.175 398.246,271.698 398.445 C 272.221 398.643,274.070 398.911,275.808 399.041 C 277.545 399.170,279.349 399.358,279.816 399.460 C 281.493 399.825,292.054 399.888,294.922 399.551 C 296.533 399.361,298.555 399.197,299.414 399.185 C 300.273 399.173,302.031 398.919,303.320 398.621 C 305.523 398.110,308.862 397.439,311.523 396.973 C 312.168 396.860,313.042 396.528,313.466 396.235 C 313.890 395.943,314.689 395.703,315.243 395.703 C 315.797 395.703,316.417 395.537,316.621 395.334 C 316.825 395.131,317.607 394.858,318.359 394.727 C 319.111 394.596,320.116 394.235,320.592 393.924 C 321.068 393.613,321.969 393.359,322.595 393.359 C 323.220 393.359,323.937 393.113,324.187 392.812 C 324.437 392.511,325.118 392.145,325.700 392.000 C 326.282 391.855,327.363 391.275,328.103 390.713 C 328.866 390.132,329.880 389.721,330.446 389.762 C 331.077 389.808,332.077 389.333,333.160 388.472 C 334.104 387.723,335.135 387.109,335.452 387.109 C 336.182 387.109,339.235 384.868,340.995 383.039 C 341.874 382.125,342.700 381.641,343.376 381.641 C 344.217 381.641,347.300 378.764,359.805 366.309 C 379.888 346.306,382.173 343.901,381.860 343.086 C 381.688 342.638,382.210 341.823,383.542 340.457 C 385.737 338.207,387.500 335.714,387.500 334.860 C 387.500 334.543,388.027 333.682,388.672 332.948 C 389.430 332.085,389.844 331.190,389.844 330.414 C 389.844 329.670,390.289 328.652,391.016 327.734 C 391.660 326.921,392.188 325.906,392.188 325.480 C 392.188 325.054,392.428 324.505,392.723 324.261 C 393.017 324.016,393.354 323.102,393.471 322.230 C 393.588 321.357,393.962 320.335,394.303 319.958 C 394.643 319.582,394.922 318.752,394.922 318.114 C 394.922 317.475,395.107 316.768,395.334 316.541 C 395.560 316.315,395.819 315.546,395.910 314.832 C 396.000 314.119,396.254 313.355,396.474 313.135 C 396.695 312.915,396.876 312.286,396.877 311.738 C 396.879 311.190,397.149 310.226,397.478 309.596 C 397.806 308.966,397.997 308.245,397.901 307.995 C 397.674 307.403,398.419 303.846,398.894 303.255 C 399.096 303.005,399.247 301.950,399.232 300.911 C 399.216 299.873,399.330 297.705,399.485 296.094 C 399.872 292.082,399.853 283.470,399.448 278.516 C 399.263 276.260,399.092 274.033,399.068 273.568 C 399.043 273.102,398.892 272.589,398.730 272.428 C 398.569 272.267,398.437 271.472,398.438 270.661 C 398.438 269.850,398.246 269.069,398.013 268.924 C 397.779 268.780,397.677 268.322,397.785 267.907 C 397.894 267.493,397.735 266.677,397.431 266.096 C 397.128 265.515,396.879 264.489,396.877 263.817 C 396.876 263.145,396.600 262.367,396.264 262.089 C 395.890 261.778,395.737 261.247,395.870 260.718 C 395.999 260.201,395.853 259.661,395.504 259.372 C 395.184 259.106,394.922 258.366,394.922 257.727 C 394.922 257.088,394.683 256.099,394.390 255.529 C 394.098 254.959,393.658 253.921,393.414 253.223 C 392.356 250.205,391.956 249.320,390.930 247.734 C 390.333 246.810,389.844 245.661,389.844 245.181 C 389.844 244.700,389.324 243.698,388.688 242.954 C 388.052 242.210,387.525 241.290,387.516 240.910 C 387.492 239.891,385.874 237.543,383.829 235.563 C 382.491 234.267,382.031 233.527,382.031 232.668 C 382.031 231.653,369.492 218.968,278.027 127.460 C 170.940 20.323,168.015 17.435,166.962 17.839 C 166.561 17.993,165.710 17.465,164.521 16.323 C 162.163 14.059,160.039 12.500,159.310 12.500 C 158.993 12.500,158.042 11.978,157.198 11.339 C 156.355 10.700,155.277 10.173,154.805 10.167 C 154.332 10.161,153.164 9.629,152.209 8.984 C 151.254 8.340,150.230 7.812,149.933 7.812 C 149.636 7.812,149.026 7.556,148.577 7.241 C 148.129 6.927,147.187 6.569,146.484 6.445 C 145.782 6.322,144.840 5.963,144.391 5.649 C 143.943 5.335,143.167 5.078,142.667 5.078 C 142.167 5.078,141.262 4.821,140.655 4.508 C 140.049 4.194,139.447 4.042,139.320 4.170 C 139.192 4.298,138.648 4.115,138.112 3.764 C 137.576 3.412,136.703 3.125,136.172 3.125 C 135.641 3.125,134.712 2.920,134.107 2.669 C 133.503 2.419,132.568 2.168,132.031 2.113 C 130.171 1.920,128.483 1.573,127.817 1.245 C 127.449 1.064,125.836 0.872,124.231 0.819 C 122.627 0.766,121.165 0.630,120.983 0.517 C 120.431 0.177,107.395 0.090,104.883 0.410 M118.945 27.126 C 124.254 27.445,129.048 28.160,132.813 29.193 C 133.994 29.518,136.016 30.039,137.305 30.352 C 140.008 31.008,144.832 33.299,146.802 34.863 C 147.546 35.454,148.488 35.938,148.895 35.938 C 151.326 35.938,153.428 37.943,203.045 87.595 C 251.098 135.680,252.757 137.389,252.377 138.389 C 252.030 139.301,249.355 141.406,248.542 141.406 C 247.793 141.406,141.851 247.957,140.862 249.705 C 140.284 250.726,139.275 251.836,138.615 252.178 L 137.416 252.798 87.686 203.059 C 38.069 153.434,36.328 151.609,36.328 149.204 C 36.328 148.847,35.784 147.804,35.120 146.887 C 33.591 144.776,31.663 141.173,31.246 139.648 C 31.070 139.004,30.644 137.510,30.299 136.328 C 29.954 135.146,29.609 133.828,29.532 133.398 C 29.454 132.969,29.204 132.148,28.975 131.575 C 28.746 131.001,28.475 129.557,28.373 128.365 C 28.271 127.173,28.080 126.025,27.949 125.813 C 27.665 125.353,27.306 119.698,27.215 114.258 C 27.144 110.019,27.583 103.971,28.165 101.172 C 28.366 100.205,28.604 98.975,28.694 98.438 C 29.110 95.949,30.518 91.120,31.163 89.967 C 31.426 89.498,31.642 88.795,31.643 88.405 C 31.645 88.014,31.995 87.168,32.422 86.523 C 32.849 85.879,33.199 85.070,33.201 84.727 C 33.202 84.383,33.747 83.351,34.412 82.433 C 35.077 81.515,35.808 80.214,36.036 79.542 C 37.353 75.667,75.701 37.368,79.618 36.016 C 80.332 35.769,81.588 35.036,82.409 34.385 C 83.230 33.735,84.228 33.202,84.627 33.201 C 85.025 33.199,85.879 32.849,86.523 32.422 C 87.168 31.995,87.904 31.645,88.158 31.643 C 88.413 31.642,89.116 31.435,89.721 31.183 C 90.807 30.731,93.041 30.020,95.703 29.279 C 98.551 28.486,103.408 27.627,105.664 27.517 C 108.648 27.372,110.938 27.083,111.201 26.820 C 111.314 26.707,112.488 26.692,113.809 26.788 C 115.130 26.883,117.441 27.035,118.945 27.126 M312.719 196.973 C 363.578 247.865,364.063 248.376,364.063 251.138 C 364.063 251.553,364.508 252.423,365.052 253.070 C 366.600 254.909,369.012 259.792,369.327 261.725 C 369.484 262.688,369.842 264.004,370.122 264.648 C 370.676 265.922,370.838 266.586,371.742 271.289 C 372.937 277.510,373.488 286.442,372.935 290.625 C 372.836 291.377,372.638 293.536,372.496 295.422 C 372.354 297.309,372.085 299.242,371.898 299.719 C 371.712 300.196,371.351 301.641,371.097 302.930 C 370.842 304.219,370.474 305.579,370.278 305.952 C 370.082 306.325,369.922 307.033,369.922 307.525 C 369.922 308.017,369.666 308.785,369.354 309.231 C 369.042 309.677,368.699 310.521,368.593 311.107 C 368.487 311.692,368.037 312.786,367.594 313.538 C 367.151 314.289,366.877 315.049,366.987 315.226 C 367.097 315.403,366.483 316.484,365.624 317.627 C 364.765 318.770,364.063 320.006,364.062 320.374 C 364.062 323.245,324.321 363.073,320.652 363.878 C 320.059 364.009,318.785 364.718,317.819 365.456 C 316.853 366.193,315.744 366.798,315.355 366.799 C 314.967 366.801,314.121 367.151,313.477 367.578 C 312.832 368.005,312.096 368.355,311.842 368.357 C 311.587 368.358,310.884 368.565,310.279 368.817 C 308.370 369.612,302.243 371.362,301.172 371.419 C 300.850 371.436,299.707 371.647,298.633 371.887 C 297.559 372.128,295.361 372.387,293.750 372.463 C 292.139 372.539,289.944 372.775,288.874 372.986 C 287.803 373.198,286.825 373.308,286.700 373.231 C 286.408 373.050,282.375 372.701,278.023 372.481 C 276.141 372.385,274.442 372.208,274.247 372.088 C 274.052 371.968,272.806 371.778,271.479 371.667 C 270.151 371.556,268.598 371.230,268.028 370.942 C 267.458 370.655,266.767 370.500,266.491 370.598 C 266.215 370.697,265.769 370.594,265.499 370.370 C 265.048 369.995,262.423 369.214,260.872 368.993 C 259.907 368.855,255.088 366.396,253.516 365.240 C 252.764 364.687,251.094 363.904,249.805 363.500 C 247.462 362.767,247.437 362.742,197.320 312.679 L 147.179 262.591 147.711 261.471 C 148.006 260.850,149.373 259.610,150.781 258.686 C 154.393 256.318,255.982 154.796,258.470 151.069 C 260.265 148.380,261.437 147.266,262.468 147.266 C 262.785 147.266,285.398 169.634,312.719 196.973 " stroke="none" fill="#070607" fill-rule="evenodd"></path><path id="path1" d="M107.227 30.118 C 103.654 30.449,101.428 30.809,96.875 31.789 C 94.459 32.309,93.668 32.552,90.039 33.890 C 87.629 34.778,82.061 37.539,80.023 38.855 C 79.015 39.506,77.474 40.469,76.599 40.994 C 74.470 42.272,40.805 76.100,40.426 77.344 C 40.262 77.881,39.600 79.091,38.955 80.032 C 37.486 82.176,34.766 87.434,34.766 88.128 C 34.766 88.414,34.443 89.225,34.048 89.930 C 33.653 90.634,33.310 91.475,33.285 91.797 C 33.260 92.119,32.951 93.350,32.598 94.531 C 31.469 98.315,30.954 100.673,30.680 103.320 C 29.903 110.848,29.743 114.802,30.115 117.327 C 30.277 118.432,30.513 120.742,30.637 122.461 C 31.142 129.413,33.495 137.360,37.346 145.117 C 38.305 147.051,39.084 148.981,39.077 149.407 C 39.063 150.145,135.935 247.553,137.601 248.478 C 138.147 248.781,138.362 248.675,138.645 247.965 C 139.045 246.962,247.543 138.458,248.396 138.208 C 248.814 138.085,248.843 137.872,248.519 137.286 C 247.579 135.584,150.552 39.063,149.795 39.077 C 149.371 39.084,147.354 38.266,145.313 37.258 C 139.885 34.578,136.652 33.303,135.060 33.214 C 134.899 33.205,134.108 32.953,133.302 32.653 C 130.710 31.691,127.699 31.108,121.094 30.292 C 117.765 29.880,110.735 29.792,107.227 30.118 M261.187 151.660 C 261.063 152.144,236.477 177.017,206.551 206.934 C 176.626 236.851,152.231 261.328,152.341 261.328 C 152.753 261.328,261.267 152.500,261.692 151.660 C 261.937 151.177,261.974 150.781,261.775 150.781 C 261.576 150.781,261.311 151.177,261.187 151.660 M360.938 251.280 C 360.938 251.848,362.196 254.286,363.099 255.469 C 363.873 256.483,364.075 256.609,363.881 255.957 C 363.640 255.149,360.938 250.855,360.938 251.280 M364.421 258.256 C 364.585 258.982,364.912 259.926,365.148 260.354 C 365.385 260.783,365.698 261.660,365.845 262.305 C 365.992 262.949,366.196 263.247,366.299 262.967 C 366.485 262.458,364.990 257.921,364.423 257.276 C 364.258 257.089,364.257 257.530,364.421 258.256 M199.805 311.328 C 226.015 337.539,247.548 358.984,247.655 358.984 C 247.762 358.984,226.406 337.539,200.195 311.328 C 173.985 285.117,152.452 263.672,152.345 263.672 C 152.238 263.672,173.594 285.117,199.805 311.328 M366.666 264.941 C 366.799 265.640,367.087 266.561,367.307 266.988 C 367.713 267.780,367.816 268.209,368.218 270.801 C 368.343 271.606,368.601 272.266,368.793 272.266 C 369.231 272.266,369.231 271.892,368.791 270.468 C 368.599 269.846,368.059 268.062,367.592 266.504 C 366.701 263.534,366.258 262.786,366.666 264.941 M369.030 274.345 C 368.878 274.736,368.896 275.351,369.071 275.712 C 369.246 276.072,369.432 277.482,369.486 278.845 C 369.539 280.207,369.735 281.702,369.921 282.165 C 370.300 283.110,370.051 277.932,369.589 275.261 C 369.379 274.050,369.236 273.815,369.030 274.345 M370.268 284.473 C 370.095 284.848,370.087 289.809,370.259 289.637 C 370.500 289.395,370.691 284.375,370.459 284.375 C 370.378 284.375,370.292 284.419,370.268 284.473 M369.604 292.709 C 369.545 294.033,369.409 295.410,369.303 295.768 C 369.196 296.126,369.292 296.532,369.515 296.670 C 369.769 296.826,369.929 296.360,369.942 295.433 C 369.952 294.615,370.026 293.200,370.104 292.288 C 370.183 291.377,370.127 290.557,369.980 290.466 C 369.833 290.374,369.663 291.384,369.604 292.709 M369.153 297.656 C 369.111 297.979,369.004 298.594,368.916 299.023 C 368.670 300.224,368.371 303.034,368.583 302.148 C 368.686 301.719,368.960 300.737,369.192 299.967 C 369.424 299.197,369.527 298.230,369.422 297.819 C 369.294 297.315,369.206 297.262,369.153 297.656 M367.757 304.199 C 367.632 304.790,367.277 305.851,366.968 306.556 C 366.659 307.262,366.406 308.091,366.406 308.398 C 366.406 308.706,366.122 309.623,365.774 310.436 C 364.232 314.039,364.069 314.495,364.396 314.293 C 364.586 314.176,364.956 313.504,365.218 312.801 C 365.480 312.098,366.012 310.732,366.401 309.766 C 366.790 308.799,367.296 307.305,367.525 306.445 C 367.754 305.586,368.047 304.487,368.177 304.004 C 368.306 303.521,368.316 303.125,368.198 303.125 C 368.080 303.125,367.882 303.608,367.757 304.199 M363.292 315.792 C 363.071 316.374,362.697 317.210,362.461 317.652 C 362.223 318.097,362.202 318.349,362.414 318.218 C 362.951 317.886,364.175 315.217,363.911 314.953 C 363.792 314.833,363.513 315.211,363.292 315.792 M361.032 319.629 C 360.816 319.897,360.191 320.996,359.644 322.070 C 358.218 324.866,324.450 358.494,321.761 359.796 C 320.731 360.294,319.707 360.921,319.484 361.189 C 319.262 361.457,320.104 361.155,321.356 360.517 C 324.614 358.858,358.751 324.794,360.563 321.395 C 361.706 319.251,361.889 318.562,361.032 319.629 M254.015 362.558 C 255.042 363.230,255.968 363.693,256.073 363.588 C 256.347 363.314,253.388 361.327,252.713 361.333 C 252.403 361.335,252.989 361.887,254.015 362.558 M315.234 363.472 C 313.408 364.396,311.475 365.342,310.938 365.574 C 310.005 365.976,310.014 365.984,311.133 365.754 C 311.777 365.622,313.094 365.099,314.059 364.593 C 315.024 364.086,315.991 363.671,316.208 363.670 C 316.424 363.669,317.129 363.236,317.773 362.707 C 319.316 361.443,319.141 361.496,315.234 363.472 M258.398 364.665 C 259.473 365.195,261.055 365.822,261.914 366.058 C 262.773 366.294,264.092 366.710,264.844 366.981 C 268.626 368.349,271.320 368.872,269.922 367.969 C 269.600 367.760,269.040 367.587,268.678 367.584 C 268.316 367.581,267.525 367.375,266.920 367.127 C 266.315 366.878,265.645 366.652,265.430 366.624 C 264.427 366.494,261.387 365.472,260.156 364.852 C 259.404 364.473,258.262 364.059,257.617 363.932 C 256.736 363.759,256.929 363.940,258.398 364.665 M308.281 366.401 C 307.572 366.569,306.882 366.816,306.747 366.951 C 306.371 367.327,309.129 366.740,309.551 366.355 C 309.755 366.168,309.843 366.034,309.746 366.056 C 309.649 366.078,308.990 366.233,308.281 366.401 M303.320 367.822 C 302.031 368.128,299.660 368.600,298.050 368.873 C 296.440 369.145,295.298 369.474,295.511 369.603 C 295.982 369.888,305.513 368.010,306.035 367.529 C 306.502 367.099,306.270 367.124,303.320 367.822 M271.191 368.781 C 271.656 369.052,272.094 369.052,272.559 368.781 C 273.116 368.456,272.990 368.383,271.875 368.383 C 270.760 368.383,270.634 368.456,271.191 368.781 M274.466 369.057 C 274.162 369.548,277.815 369.970,278.301 369.500 C 278.529 369.279,278.230 369.139,277.520 369.135 C 276.886 369.132,275.992 369.029,275.532 368.906 C 275.073 368.783,274.593 368.851,274.466 369.057 M279.142 369.465 C 278.856 369.929,282.444 370.337,283.182 369.925 C 283.552 369.718,283.263 369.609,282.344 369.609 C 281.571 369.609,280.585 369.497,280.151 369.359 C 279.717 369.221,279.263 369.269,279.142 369.465 M291.019 369.605 C 286.822 370.056,286.712 370.306,290.816 370.069 C 292.747 369.957,294.385 369.808,294.455 369.738 C 294.824 369.368,293.641 369.323,291.019 369.605 M284.017 370.062 C 284.106 370.139,284.883 370.310,285.742 370.441 C 286.806 370.605,287.118 370.562,286.719 370.307 C 286.185 369.967,283.638 369.736,284.017 370.062 " stroke="none" fill="#c39bf1" fill-rule="evenodd"></path><path id="path2" d="M261.719 151.657 C 261.719 152.279,152.698 261.328,152.076 261.328 C 151.819 261.328,151.488 261.524,151.340 261.763 C 151.064 262.210,246.172 357.715,248.953 359.783 C 249.774 360.393,250.679 360.802,250.964 360.693 C 251.250 360.583,251.600 360.681,251.741 360.911 C 251.883 361.140,252.306 361.328,252.680 361.328 C 253.055 361.328,254.061 361.843,254.916 362.471 C 255.771 363.100,256.992 363.738,257.630 363.889 C 258.267 364.040,259.404 364.473,260.156 364.852 C 261.456 365.507,264.594 366.546,265.430 366.598 C 265.645 366.611,266.011 366.742,266.245 366.889 C 267.087 367.417,272.597 368.652,275.391 368.939 C 276.357 369.039,278.027 369.210,279.102 369.320 C 280.176 369.431,282.195 369.626,283.589 369.756 C 284.982 369.885,286.236 370.060,286.375 370.146 C 286.514 370.232,287.571 370.139,288.724 369.940 C 289.877 369.740,292.314 369.470,294.141 369.340 C 295.967 369.210,298.164 368.955,299.023 368.775 C 305.076 367.504,306.772 367.048,310.352 365.730 C 313.029 364.743,317.677 362.384,319.969 360.847 C 321.177 360.037,322.403 359.375,322.694 359.375 C 323.719 359.375,358.565 324.193,359.642 322.070 C 360.187 320.996,360.945 319.766,361.325 319.336 C 362.062 318.505,364.780 312.958,365.727 310.352 C 367.340 305.915,367.799 304.405,368.398 301.563 C 369.081 298.320,369.155 297.860,369.344 295.703 C 369.448 294.521,369.634 292.588,369.757 291.406 C 370.138 287.763,370.180 284.261,369.865 282.422 C 369.700 281.455,369.466 279.521,369.345 278.125 C 369.025 274.410,368.893 273.455,368.400 271.289 C 368.155 270.215,367.893 268.984,367.818 268.555 C 367.743 268.125,367.505 267.334,367.290 266.797 C 367.074 266.260,366.593 264.766,366.221 263.477 C 365.848 262.188,365.298 260.666,364.998 260.096 C 364.698 259.526,364.453 258.710,364.453 258.284 C 364.453 257.858,363.872 256.655,363.162 255.610 C 361.821 253.638,361.177 252.193,360.751 250.195 C 360.483 248.940,263.187 151.172,262.205 151.172 C 261.938 151.172,261.719 151.390,261.719 151.657 " stroke="none" fill="#f3bbe3" fill-rule="evenodd"></path><path id="path3" d="M110.547 28.152 C 109.365 28.342,107.080 28.580,105.469 28.679 C 103.857 28.778,101.660 29.057,100.586 29.299 C 99.512 29.541,98.193 29.804,97.656 29.883 C 97.119 29.962,96.152 30.214,95.508 30.443 C 91.676 31.805,88.352 32.912,87.514 33.105 C 86.985 33.226,85.764 33.826,84.801 34.436 C 83.838 35.047,82.855 35.547,82.617 35.547 C 82.379 35.547,81.060 36.338,79.688 37.305 C 78.315 38.271,76.922 39.063,76.594 39.063 C 75.691 39.063,40.328 74.513,39.381 76.367 C 38.942 77.227,38.190 78.457,37.709 79.102 C 36.733 80.411,33.198 86.948,33.220 87.403 C 33.227 87.564,32.988 88.311,32.688 89.063 C 31.416 92.247,30.990 93.750,29.500 100.289 C 29.146 101.845,28.791 104.482,28.712 106.149 C 28.579 108.952,28.292 111.898,28.071 112.735 C 28.020 112.928,28.116 113.841,28.284 114.764 C 28.453 115.686,28.656 118.147,28.737 120.232 C 28.817 122.317,29.064 124.902,29.285 125.977 C 29.506 127.051,29.764 128.369,29.858 128.906 C 30.284 131.337,31.774 136.592,32.143 136.960 C 32.296 137.114,32.422 137.697,32.422 138.256 C 32.422 138.815,32.861 139.918,33.398 140.709 C 33.936 141.499,34.375 142.431,34.375 142.778 C 34.375 143.586,35.003 144.760,36.356 146.484 C 36.946 147.236,37.748 148.818,38.138 150.000 C 38.850 152.158,136.780 251.169,137.756 250.719 C 138.431 250.407,248.997 139.453,248.633 139.453 C 248.060 139.453,141.132 246.430,139.796 248.340 C 139.157 249.253,138.427 250.000,138.175 250.000 C 137.922 250.000,115.938 228.247,89.321 201.660 C 43.426 155.816,37.891 150.057,37.891 148.150 C 37.891 147.843,37.275 146.842,36.523 145.924 C 35.771 145.006,35.156 143.948,35.156 143.572 C 35.156 143.196,34.735 142.072,34.221 141.073 C 33.150 138.995,32.422 136.819,32.422 135.695 C 32.422 135.270,32.256 134.755,32.054 134.551 C 31.255 133.745,29.513 124.431,29.098 118.750 C 28.950 116.709,28.778 114.424,28.718 113.672 C 28.612 112.349,28.796 110.325,29.697 102.948 C 30.448 96.793,32.535 89.901,35.263 84.570 C 39.579 76.136,40.471 75.066,57.179 58.268 C 72.086 43.281,77.238 38.711,81.116 37.037 C 81.727 36.773,82.930 36.107,83.789 35.556 C 84.648 35.006,85.967 34.319,86.719 34.031 C 92.883 31.668,99.516 29.826,103.125 29.474 C 114.026 28.413,113.225 28.419,122.070 29.329 C 129.324 30.075,129.075 30.027,134.180 31.698 C 134.824 31.909,135.703 32.142,136.133 32.216 C 137.418 32.437,139.535 33.235,141.464 34.225 C 142.462 34.737,143.575 35.156,143.937 35.156 C 144.299 35.156,145.328 35.746,146.223 36.467 C 147.119 37.188,148.452 37.980,149.185 38.227 C 149.919 38.474,151.413 39.369,152.506 40.216 C 155.481 42.523,250.000 137.257,250.000 137.933 C 250.000 138.253,249.780 138.766,249.512 139.072 C 249.243 139.377,249.419 139.298,249.902 138.894 C 250.386 138.490,250.781 137.967,250.781 137.732 C 250.781 136.337,152.103 38.772,149.855 37.944 C 148.593 37.480,146.923 36.600,146.144 35.989 C 144.399 34.622,142.970 33.853,142.693 34.130 C 142.578 34.245,141.849 33.908,141.073 33.380 C 140.297 32.853,139.205 32.422,138.646 32.422 C 138.087 32.422,137.505 32.296,137.351 32.143 C 137.197 31.989,136.245 31.631,135.235 31.347 C 134.225 31.063,132.783 30.658,132.031 30.446 C 129.143 29.633,124.301 28.809,121.680 28.685 C 118.518 28.535,115.542 28.273,113.867 27.998 C 113.223 27.892,111.729 27.961,110.547 28.152 M205.664 205.957 L 152.930 258.789 205.762 206.055 C 234.819 177.052,258.594 153.277,258.594 153.223 C 258.594 152.950,254.690 156.839,205.664 205.957 M312.695 199.219 C 338.046 224.570,358.876 245.313,358.983 245.313 C 359.091 245.313,338.437 224.570,313.086 199.219 C 287.735 173.867,266.906 153.125,266.798 153.125 C 266.691 153.125,287.344 173.867,312.695 199.219 M360.789 247.637 C 361.029 247.970,361.411 248.770,361.637 249.414 C 361.976 250.382,362.053 250.437,362.079 249.729 C 362.095 249.257,361.714 248.458,361.230 247.952 C 360.747 247.446,360.548 247.304,360.789 247.637 M365.625 257.204 C 365.625 257.728,365.769 258.246,365.945 258.355 C 366.121 258.464,366.189 258.034,366.096 257.401 C 365.891 256.005,365.625 255.893,365.625 257.204 M149.688 261.016 C 149.430 261.273,149.219 261.757,149.219 262.090 C 149.219 262.424,171.323 284.757,198.340 311.719 L 247.461 360.742 198.535 311.718 C 171.626 284.755,149.609 262.422,149.609 262.089 C 149.609 261.757,149.820 261.273,150.078 261.016 C 150.336 260.758,150.459 260.547,150.352 260.547 C 150.244 260.547,149.945 260.758,149.688 261.016 M367.578 261.891 C 367.578 262.415,367.722 262.933,367.898 263.042 C 368.074 263.151,368.142 262.722,368.049 262.089 C 367.844 260.693,367.578 260.581,367.578 261.891 M371.966 286.719 C 371.966 287.471,372.046 287.778,372.144 287.402 C 372.243 287.026,372.243 286.411,372.144 286.035 C 372.046 285.659,371.966 285.967,371.966 286.719 M370.926 297.489 C 370.783 298.061,370.740 298.605,370.833 298.697 C 370.925 298.789,371.117 298.396,371.261 297.824 C 371.405 297.251,371.447 296.707,371.355 296.615 C 371.263 296.523,371.070 296.916,370.926 297.489 M366.679 312.012 C 366.376 312.551,365.949 314.650,366.191 314.408 C 366.481 314.118,367.192 311.719,366.988 311.719 C 366.908 311.719,366.769 311.851,366.679 312.012 M360.053 324.319 L 359.364 325.586 360.151 324.664 C 360.820 323.879,361.178 323.041,360.840 323.049 C 360.786 323.051,360.432 323.622,360.053 324.319 M342.186 342.871 L 325.977 359.180 342.285 342.971 C 357.443 327.905,358.769 326.563,358.494 326.563 C 358.440 326.563,351.101 333.901,342.186 342.871 M323.869 360.183 C 321.889 361.246,321.464 361.847,323.330 360.945 C 324.221 360.514,325.060 359.985,325.194 359.769 C 325.481 359.303,325.543 359.284,323.869 360.183 M248.106 361.150 C 248.461 361.513,248.964 361.738,249.225 361.652 C 249.485 361.565,249.195 361.268,248.579 360.993 C 247.532 360.523,247.502 360.533,248.106 361.150 M317.285 364.075 C 316.802 364.269,316.406 364.497,316.406 364.582 C 316.406 364.871,318.371 364.360,318.584 364.016 C 318.845 363.593,318.438 363.611,317.285 364.075 M313.086 366.294 C 311.890 366.582,311.522 367.117,312.671 366.897 C 313.228 366.791,313.779 366.549,313.896 366.360 C 314.013 366.170,314.054 366.036,313.988 366.061 C 313.922 366.086,313.516 366.191,313.086 366.294 M309.766 367.469 C 308.333 367.726,307.971 368.258,309.368 368.053 C 310.021 367.957,310.653 367.723,310.770 367.533 C 310.887 367.343,310.929 367.211,310.863 367.241 C 310.797 367.270,310.303 367.373,309.766 367.469 M306.250 368.641 C 304.818 368.898,304.455 369.430,305.852 369.225 C 306.506 369.129,307.137 368.895,307.254 368.705 C 307.372 368.515,307.414 368.383,307.347 368.413 C 307.281 368.442,306.787 368.545,306.250 368.641 M266.740 369.240 C 266.936 369.436,267.513 369.532,268.021 369.452 C 268.803 369.329,268.748 369.274,267.664 369.094 C 266.887 368.966,266.523 369.023,266.740 369.240 M271.680 370.302 C 272.426 370.633,274.916 370.856,274.577 370.562 C 274.487 370.485,273.623 370.317,272.656 370.189 C 271.483 370.034,271.158 370.071,271.680 370.302 " stroke="none" fill="#846ca0" fill-rule="evenodd"></path><path id="path4" d="M259.636 151.855 C 256.999 155.058,152.673 259.290,150.879 260.515 C 150.181 260.991,149.609 261.678,149.609 262.040 C 149.609 263.574,247.649 360.749,250.195 361.739 C 251.484 362.240,253.434 363.319,254.528 364.137 C 255.621 364.956,256.857 365.625,257.273 365.625 C 257.689 365.625,258.416 365.896,258.889 366.227 C 259.771 366.845,262.820 367.928,264.319 368.155 C 265.236 368.294,267.589 369.013,269.141 369.628 C 269.678 369.840,270.987 370.079,272.049 370.159 C 273.112 370.238,274.518 370.478,275.174 370.693 C 277.492 371.451,287.072 371.810,291.992 371.323 C 293.711 371.153,295.732 370.961,296.484 370.895 C 298.844 370.688,304.475 369.490,304.863 369.112 C 305.067 368.913,305.595 368.749,306.035 368.748 C 306.476 368.746,307.339 368.483,307.955 368.162 C 308.570 367.841,309.361 367.577,309.713 367.576 C 310.064 367.574,310.855 367.311,311.470 366.990 C 312.086 366.669,312.798 366.406,313.054 366.406 C 313.310 366.406,314.319 365.899,315.297 365.278 C 316.275 364.658,317.494 364.018,318.005 363.856 C 318.515 363.694,319.818 362.908,320.898 362.109 C 321.979 361.311,323.300 360.525,323.834 360.363 C 325.357 359.901,358.781 326.413,360.325 323.801 C 361.032 322.605,362.163 320.865,362.837 319.934 C 363.511 319.004,364.063 318.046,364.063 317.806 C 364.063 317.565,364.477 316.757,364.984 316.009 C 365.491 315.261,366.031 314.209,366.185 313.672 C 366.340 313.135,366.784 311.992,367.174 311.133 C 369.044 307.005,370.945 298.907,371.326 293.439 C 371.729 287.656,371.477 276.327,370.926 275.435 C 370.613 274.929,370.274 272.635,370.295 271.167 C 370.302 270.671,370.038 269.743,369.708 269.105 C 369.378 268.468,369.203 267.793,369.318 267.607 C 369.433 267.421,369.265 266.767,368.946 266.154 C 368.626 265.541,368.363 264.654,368.362 264.183 C 368.360 263.712,368.184 263.219,367.969 263.086 C 367.754 262.953,367.578 262.368,367.578 261.786 C 367.578 261.204,367.139 260.082,366.602 259.291 C 366.064 258.501,365.625 257.465,365.625 256.990 C 365.625 256.515,364.940 255.232,364.104 254.138 C 363.267 253.044,362.263 251.182,361.873 250.000 C 361.172 247.879,263.651 149.224,262.251 149.220 C 262.007 149.219,260.830 150.405,259.636 151.855 M311.252 199.707 C 355.914 244.342,361.700 250.280,361.107 250.872 C 361.002 250.977,361.537 251.984,362.294 253.110 C 363.052 254.235,363.673 255.271,363.674 255.410 C 363.676 255.550,363.904 256.104,364.181 256.641 C 365.556 259.304,368.973 270.394,369.056 272.461 C 369.073 272.891,369.275 274.107,369.505 275.164 C 370.729 280.792,370.526 295.914,369.171 300.000 C 368.993 300.537,368.633 301.943,368.372 303.125 C 367.512 307.009,366.545 309.779,364.607 313.906 C 364.093 315.002,363.672 316.040,363.672 316.213 C 363.672 316.386,363.257 317.072,362.751 317.737 C 362.244 318.401,361.348 319.912,360.759 321.094 C 359.308 324.007,324.606 358.933,321.875 360.229 C 320.908 360.688,319.326 361.628,318.359 362.318 C 317.393 363.008,316.174 363.705,315.652 363.867 C 315.130 364.028,314.163 364.489,313.503 364.891 C 312.844 365.293,312.041 365.624,311.719 365.626 C 311.396 365.628,310.629 365.892,310.014 366.213 C 309.399 366.534,308.634 366.797,308.315 366.797 C 307.996 366.797,307.181 367.054,306.504 367.367 C 305.163 367.989,298.016 369.520,295.508 369.723 C 294.648 369.793,292.451 369.978,290.625 370.135 C 286.733 370.468,286.914 370.467,283.398 370.183 C 281.895 370.061,279.272 369.855,277.570 369.724 C 275.868 369.594,274.140 369.308,273.730 369.088 C 273.321 368.869,272.749 368.781,272.459 368.892 C 272.169 369.003,271.436 368.940,270.829 368.751 C 270.223 368.562,268.936 368.204,267.969 367.955 C 267.002 367.707,265.634 367.256,264.928 366.955 C 264.223 366.653,263.365 366.406,263.022 366.406 C 262.107 366.406,255.182 363.381,253.551 362.268 C 252.780 361.742,251.445 361.125,250.586 360.897 C 249.053 360.492,156.722 269.029,152.302 263.538 C 150.939 261.844,150.562 260.515,151.634 261.177 C 152.164 261.505,260.890 152.815,261.187 151.660 C 261.311 151.177,261.612 150.781,261.855 150.781 C 262.098 150.781,284.327 172.798,311.252 199.707 " stroke="none" fill="#a6809c" fill-rule="evenodd"></path><path id="path5" d="M260.551 148.764 C 259.904 149.411,259.375 150.260,259.375 150.650 C 259.375 151.659,152.557 258.466,150.796 259.218 C 149.089 259.946,148.047 260.880,148.047 261.680 C 148.047 262.347,243.602 358.267,247.389 361.401 C 248.926 362.673,250.020 363.281,250.770 363.281 C 251.455 363.281,252.475 363.779,253.435 364.581 C 255.863 366.610,259.359 368.154,264.648 369.537 C 266.152 369.930,268.368 370.520,269.571 370.848 C 270.775 371.176,272.093 371.455,272.501 371.467 C 273.324 371.492,274.511 371.648,276.563 372.002 C 277.742 372.206,284.594 372.702,286.914 372.752 C 288.644 372.789,297.265 371.802,300.195 371.231 C 305.650 370.169,306.922 369.817,310.072 368.504 C 310.777 368.209,311.629 367.969,311.965 367.969 C 312.300 367.969,313.041 367.644,313.612 367.247 C 314.182 366.850,315.219 366.332,315.917 366.096 C 316.615 365.860,317.757 365.239,318.456 364.716 C 319.155 364.194,320.605 363.385,321.680 362.920 C 324.840 361.550,361.531 324.649,363.267 321.094 C 363.948 319.697,364.833 318.203,365.232 317.773 C 365.631 317.344,366.084 316.465,366.239 315.820 C 366.394 315.176,366.862 314.159,367.280 313.561 C 367.698 312.963,368.087 312.048,368.144 311.527 C 368.202 311.005,368.544 310.127,368.906 309.575 C 369.268 309.023,369.461 308.406,369.336 308.204 C 369.211 308.001,369.380 307.312,369.711 306.671 C 370.042 306.031,370.313 305.070,370.313 304.535 C 370.313 304.000,370.470 303.465,370.662 303.346 C 370.854 303.227,371.114 302.382,371.239 301.467 C 371.364 300.553,371.557 299.189,371.668 298.438 C 372.190 294.890,372.524 291.164,372.360 290.718 C 372.260 290.446,372.355 290.007,372.570 289.741 C 372.788 289.473,372.894 287.955,372.808 286.328 C 372.724 284.717,372.582 281.992,372.493 280.273 C 372.239 275.380,370.710 267.127,369.526 264.258 C 369.349 263.828,369.103 262.890,368.980 262.173 C 368.653 260.271,365.752 254.277,364.553 253.025 C 363.985 252.433,363.486 251.446,363.444 250.833 C 363.401 250.219,363.152 249.298,362.890 248.784 C 362.431 247.886,265.740 150.956,263.048 148.696 L 261.728 147.587 260.551 148.764 M312.162 198.340 C 350.051 236.229,361.730 248.127,361.915 249.023 C 362.292 250.849,363.117 252.513,364.627 254.491 C 365.391 255.491,366.016 256.671,366.016 257.113 C 366.016 257.554,366.388 258.518,366.843 259.255 C 367.607 260.490,368.107 261.962,368.611 264.453 C 368.720 264.990,368.963 265.781,369.152 266.211 C 369.754 267.583,370.365 270.064,370.549 271.875 C 370.646 272.842,370.892 274.248,371.094 275.000 C 371.296 275.752,371.579 278.389,371.724 280.859 C 372.072 286.791,372.073 287.634,371.743 290.625 C 371.589 292.021,371.393 294.307,371.308 295.703 C 371.222 297.100,370.952 298.945,370.707 299.805 C 370.462 300.664,370.194 301.807,370.111 302.344 C 369.879 303.860,368.859 307.269,368.358 308.206 C 368.109 308.671,368.000 309.146,368.116 309.262 C 368.231 309.377,367.982 310.146,367.561 310.970 C 367.141 311.795,366.797 312.676,366.797 312.930 C 366.797 313.183,366.270 314.247,365.625 315.295 C 364.980 316.342,364.453 317.385,364.453 317.612 C 364.453 317.838,363.684 319.110,362.743 320.438 C 361.803 321.765,360.903 323.291,360.744 323.828 C 360.365 325.109,325.101 360.376,323.828 360.748 C 323.291 360.905,321.765 361.803,320.438 362.743 C 319.110 363.684,317.782 364.453,317.487 364.453 C 317.192 364.453,316.149 364.961,315.170 365.582 C 314.191 366.203,312.840 366.832,312.168 366.979 C 311.496 367.127,310.846 367.410,310.724 367.608 C 310.601 367.806,310.142 367.969,309.704 367.969 C 309.266 367.969,308.353 368.210,307.676 368.506 C 306.318 369.098,303.367 369.977,302.148 370.152 C 301.719 370.214,300.400 370.453,299.219 370.682 C 298.037 370.912,295.752 371.188,294.141 371.297 C 292.529 371.406,290.166 371.658,288.890 371.857 C 287.613 372.056,286.437 372.138,286.277 372.039 C 285.954 371.839,282.630 371.518,278.612 371.299 C 275.449 371.127,268.318 369.853,266.602 369.154 C 265.458 368.688,262.407 367.822,261.659 367.750 C 261.304 367.716,260.404 367.312,259.660 366.852 C 258.915 366.392,257.945 366.016,257.503 366.016 C 257.062 366.016,255.906 365.409,254.934 364.667 C 252.672 362.941,250.274 361.719,249.146 361.719 C 248.077 361.719,149.219 263.110,149.219 262.043 C 149.219 261.679,149.790 260.993,150.488 260.518 C 152.362 259.245,258.396 153.283,260.203 150.879 C 261.050 149.751,261.947 148.828,262.197 148.828 C 262.446 148.828,284.930 171.108,312.162 198.340 " stroke="none" fill="#6e5467" fill-rule="evenodd"></path><path id="path6" d="M111.201 26.820 C 110.938 27.083,108.648 27.372,105.664 27.517 C 103.408 27.627,98.551 28.486,95.703 29.279 C 93.041 30.020,90.807 30.731,89.721 31.183 C 89.116 31.435,88.413 31.642,88.158 31.643 C 87.904 31.645,87.168 31.995,86.523 32.422 C 85.879 32.849,85.025 33.199,84.627 33.201 C 84.228 33.202,83.230 33.735,82.409 34.385 C 81.588 35.036,80.332 35.769,79.618 36.016 C 75.701 37.368,37.353 75.667,36.036 79.542 C 35.808 80.214,35.077 81.515,34.412 82.433 C 33.747 83.351,33.202 84.383,33.201 84.727 C 33.199 85.070,32.849 85.879,32.422 86.523 C 31.995 87.168,31.645 88.014,31.643 88.405 C 31.642 88.795,31.426 89.498,31.163 89.967 C 30.518 91.120,29.110 95.949,28.694 98.438 C 28.604 98.975,28.366 100.205,28.165 101.172 C 27.583 103.971,27.144 110.019,27.215 114.258 C 27.306 119.698,27.665 125.353,27.949 125.813 C 28.080 126.025,28.271 127.173,28.373 128.365 C 28.475 129.557,28.746 131.001,28.975 131.575 C 29.204 132.148,29.454 132.969,29.532 133.398 C 29.609 133.828,29.954 135.146,30.299 136.328 C 30.644 137.510,31.070 139.004,31.246 139.648 C 31.663 141.173,33.591 144.776,35.120 146.887 C 35.784 147.804,36.328 148.847,36.328 149.204 C 36.328 151.609,38.069 153.434,87.686 203.059 L 137.416 252.798 138.615 252.178 C 139.275 251.836,140.284 250.726,140.862 249.705 C 141.851 247.957,247.793 141.406,248.542 141.406 C 249.355 141.406,252.030 139.301,252.377 138.389 C 252.757 137.389,251.098 135.680,203.045 87.595 C 153.428 37.943,151.326 35.938,148.895 35.938 C 148.488 35.938,147.546 35.454,146.802 34.863 C 144.832 33.299,140.008 31.008,137.305 30.352 C 136.016 30.039,133.994 29.518,132.813 29.193 C 129.048 28.160,124.254 27.445,118.945 27.126 C 117.441 27.035,115.130 26.883,113.809 26.788 C 112.488 26.692,111.314 26.707,111.201 26.820 M116.602 27.862 C 118.535 28.132,120.996 28.319,122.070 28.278 C 123.145 28.236,124.207 28.353,124.432 28.536 C 124.657 28.720,125.184 28.853,125.604 28.832 C 127.544 28.737,133.520 30.180,136.648 31.498 C 137.361 31.798,138.108 31.943,138.307 31.820 C 138.507 31.696,139.066 31.874,139.550 32.214 C 140.034 32.554,141.087 33.010,141.890 33.227 C 142.693 33.444,144.518 34.421,145.946 35.398 C 147.374 36.376,149.177 37.269,149.954 37.384 C 151.596 37.625,251.827 137.279,251.485 138.330 C 251.389 138.626,250.620 139.189,249.777 139.583 C 247.547 140.623,140.517 247.698,139.699 249.707 C 139.320 250.637,138.845 251.172,138.398 251.172 C 136.922 251.172,38.404 152.019,37.680 149.805 C 37.328 148.730,36.517 147.188,35.877 146.377 C 35.237 145.566,34.364 144.072,33.938 143.057 C 33.512 142.041,32.908 140.744,32.597 140.174 C 32.286 139.604,32.031 138.757,32.031 138.293 C 32.031 137.829,31.842 137.095,31.611 136.663 C 30.355 134.316,28.625 125.590,28.330 120.117 C 28.238 118.398,28.001 116.157,27.804 115.137 C 27.585 114.006,27.586 112.556,27.805 111.426 C 28.162 109.590,28.266 108.645,28.692 103.320 C 28.812 101.816,29.065 100.059,29.254 99.414 C 29.443 98.770,29.822 97.188,30.096 95.898 C 30.370 94.609,30.742 93.388,30.922 93.184 C 31.103 92.979,31.256 92.452,31.263 92.012 C 31.271 91.571,31.616 90.508,32.031 89.648 C 32.446 88.789,32.792 87.819,32.799 87.493 C 32.807 87.167,33.252 86.253,33.789 85.463 C 34.326 84.673,34.766 83.782,34.766 83.484 C 34.766 83.186,35.471 81.935,36.333 80.704 C 37.195 79.474,38.170 77.819,38.498 77.026 C 39.276 75.153,74.041 40.227,76.563 38.786 C 77.529 38.233,79.023 37.333,79.883 36.785 C 84.564 33.802,91.096 31.110,96.726 29.846 C 102.239 28.607,103.004 28.483,106.250 28.298 C 108.076 28.194,110.273 27.957,111.133 27.771 C 111.992 27.586,112.783 27.420,112.891 27.402 C 112.998 27.385,114.668 27.592,116.602 27.862 M260.666 148.280 L 259.570 149.295 260.693 148.479 L 261.815 147.663 263.092 148.734 C 265.742 150.956,362.435 247.893,362.890 248.784 C 363.152 249.298,363.401 250.219,363.444 250.833 C 363.486 251.446,363.985 252.433,364.553 253.025 C 365.868 254.398,368.776 260.577,369.043 262.564 C 369.154 263.399,369.417 264.187,369.626 264.316 C 369.845 264.451,369.914 264.240,369.789 263.818 C 369.670 263.416,369.450 262.383,369.299 261.523 C 368.984 259.727,366.510 254.802,365.052 253.070 C 364.508 252.423,364.063 251.553,364.063 251.138 C 364.063 248.376,363.578 247.865,312.719 196.973 C 285.398 169.634,262.756 147.266,262.403 147.266 C 262.051 147.266,261.269 147.722,260.666 148.280 M258.060 151.660 C 256.019 154.784,153.965 256.598,150.781 258.686 C 149.373 259.610,148.006 260.850,147.711 261.471 L 147.179 262.591 197.320 312.679 C 247.437 362.742,247.462 362.767,249.805 363.500 C 251.094 363.904,252.764 364.687,253.516 365.240 C 255.088 366.396,259.907 368.855,260.872 368.993 C 262.423 369.214,265.048 369.995,265.499 370.370 C 265.769 370.594,266.215 370.697,266.491 370.598 C 266.767 370.500,267.458 370.655,268.028 370.942 C 269.200 371.533,274.355 372.077,273.473 371.516 C 273.170 371.323,272.719 371.244,272.471 371.339 C 272.223 371.434,270.977 371.228,269.701 370.882 C 268.426 370.535,266.152 369.930,264.648 369.537 C 259.359 368.154,255.863 366.610,253.435 364.581 C 252.475 363.779,251.455 363.281,250.770 363.281 C 250.020 363.281,248.926 362.673,247.389 361.401 C 243.602 358.267,148.047 262.347,148.047 261.680 C 148.047 260.880,149.089 259.947,150.796 259.217 C 152.498 258.489,258.773 152.233,259.348 150.684 C 259.943 149.078,259.552 149.375,258.060 151.660 M369.922 265.207 C 369.922 265.432,370.263 266.893,370.681 268.453 C 371.098 270.013,371.558 272.300,371.702 273.535 C 371.847 274.771,372.140 275.781,372.353 275.781 C 372.586 275.781,372.625 275.353,372.451 274.707 C 372.183 273.718,371.365 269.559,370.837 266.500 C 370.631 265.308,369.922 264.306,369.922 265.207 M372.398 279.619 C 372.432 281.549,372.567 283.063,372.697 282.983 C 372.966 282.816,372.802 276.578,372.520 276.296 C 372.418 276.194,372.363 277.689,372.398 279.619 M372.927 284.668 C 372.681 285.102,372.897 288.652,373.188 288.943 C 373.325 289.080,373.438 288.109,373.438 286.784 C 373.438 284.511,373.312 283.989,372.927 284.668 M372.551 289.746 C 372.326 290.181,372.216 294.711,372.436 294.491 C 372.630 294.297,372.983 289.453,372.803 289.453 C 372.748 289.453,372.634 289.585,372.551 289.746 M372.113 295.745 C 371.684 297.113,371.540 298.816,371.838 299.000 C 372.018 299.112,372.260 298.372,372.376 297.355 C 372.583 295.531,372.445 294.687,372.113 295.745 M370.527 303.613 C 370.178 304.740,370.056 306.213,370.326 306.046 C 370.486 305.948,370.689 305.250,370.777 304.496 C 370.937 303.127,370.813 302.691,370.527 303.613 M369.365 307.292 C 369.227 307.650,369.297 308.125,369.518 308.347 C 369.796 308.624,369.922 308.421,369.922 307.695 C 369.922 306.490,369.727 306.349,369.365 307.292 M367.099 313.770 C 366.246 315.086,365.795 317.260,366.583 316.251 C 366.902 315.843,367.073 315.365,366.963 315.188 C 366.854 315.011,367.056 314.421,367.412 313.878 C 367.767 313.335,367.971 312.891,367.863 312.891 C 367.756 312.891,367.412 313.286,367.099 313.770 M363.260 320.955 C 363.044 321.523,362.771 322.182,362.654 322.420 C 362.536 322.657,362.805 322.437,363.251 321.929 C 363.698 321.422,364.063 320.763,364.063 320.465 C 364.063 319.603,363.687 319.832,363.260 320.955 M342.967 342.841 C 333.193 352.654,326.426 359.609,327.930 358.296 C 331.909 354.824,361.457 325.000,360.918 325.000 C 360.819 325.000,352.742 333.029,342.967 342.841 M320.801 363.293 C 319.888 363.699,319.141 364.116,319.141 364.221 C 319.141 364.553,321.653 363.594,322.252 363.035 C 322.970 362.363,322.843 362.386,320.801 363.293 M315.751 366.143 C 314.058 366.768,313.831 367.086,315.225 366.882 C 315.861 366.788,316.584 366.467,316.832 366.168 C 317.353 365.541,317.379 365.542,315.751 366.143 M310.547 368.377 C 310.119 368.667,310.277 368.703,311.133 368.512 C 312.569 368.190,312.881 367.967,311.882 367.975 C 311.470 367.978,310.869 368.159,310.547 368.377 M308.281 369.135 C 307.572 369.303,306.882 369.551,306.747 369.685 C 306.371 370.061,309.129 369.475,309.551 369.089 C 309.755 368.903,309.843 368.768,309.746 368.790 C 309.649 368.812,308.990 368.967,308.281 369.135 M302.344 370.898 C 300.556 371.587,301.248 371.591,303.711 370.908 C 304.841 370.594,305.253 370.367,304.688 370.369 C 304.150 370.370,303.096 370.609,302.344 370.898 M299.023 371.484 C 297.942 371.759,297.927 371.786,298.828 371.823 C 299.365 371.845,300.068 371.693,300.391 371.484 C 301.055 371.055,300.712 371.055,299.023 371.484 M274.555 371.917 C 274.194 372.146,274.430 372.256,275.293 372.260 C 275.991 372.263,276.563 372.198,276.563 372.116 C 276.563 371.761,275.040 371.610,274.555 371.917 M295.215 372.278 C 295.739 372.488,296.449 372.488,296.973 372.278 C 297.690 371.989,297.529 371.925,296.094 371.925 C 294.658 371.925,294.497 371.989,295.215 372.278 M281.338 372.484 C 281.457 372.603,282.669 372.789,284.030 372.897 C 285.391 373.005,286.412 373.001,286.299 372.888 C 286.186 372.775,284.975 372.589,283.607 372.474 C 282.239 372.360,281.218 372.364,281.338 372.484 M288.570 372.640 C 287.762 372.797,286.984 373.042,286.841 373.185 C 286.697 373.329,287.095 373.349,287.724 373.230 C 288.353 373.111,289.658 372.865,290.625 372.683 C 291.880 372.446,292.047 372.352,291.211 372.353 C 290.566 372.355,289.378 372.484,288.570 372.640 " stroke="none" fill="#5c4c74" fill-rule="evenodd"></path><path id="path7" d="M108.594 28.912 C 106.982 29.093,104.697 29.331,103.516 29.441 C 99.587 29.806,93.160 31.562,86.719 34.031 C 85.967 34.319,84.648 35.006,83.789 35.556 C 82.930 36.107,81.727 36.773,81.116 37.037 C 77.238 38.711,72.086 43.281,57.179 58.268 C 40.471 75.066,39.579 76.136,35.263 84.570 C 32.535 89.901,30.448 96.793,29.697 102.948 C 28.796 110.325,28.612 112.349,28.718 113.672 C 28.778 114.424,28.950 116.709,29.098 118.750 C 29.513 124.431,31.255 133.745,32.054 134.551 C 32.256 134.755,32.422 135.270,32.422 135.695 C 32.422 136.819,33.150 138.995,34.221 141.073 C 34.735 142.072,35.156 143.196,35.156 143.572 C 35.156 143.948,35.771 145.006,36.523 145.924 C 37.275 146.842,37.891 147.843,37.891 148.150 C 37.891 150.057,43.426 155.816,89.321 201.660 C 115.938 228.247,137.918 250.000,138.167 250.000 C 138.415 250.000,139.007 249.429,139.482 248.730 C 140.738 246.882,246.372 141.175,248.340 139.797 C 249.253 139.157,250.000 138.345,250.000 137.992 C 250.000 137.276,155.648 42.652,152.506 40.216 C 151.413 39.369,149.919 38.474,149.185 38.227 C 148.452 37.980,147.119 37.188,146.223 36.467 C 145.328 35.746,144.299 35.156,143.937 35.156 C 143.575 35.156,142.462 34.737,141.464 34.225 C 139.535 33.235,137.418 32.437,136.133 32.216 C 135.703 32.142,134.824 31.909,134.180 31.698 C 130.442 30.474,128.919 30.072,127.344 29.890 C 117.303 28.736,112.422 28.481,108.594 28.912 M121.094 30.292 C 127.699 31.108,130.710 31.691,133.302 32.653 C 134.108 32.953,134.899 33.205,135.060 33.214 C 136.652 33.303,139.885 34.578,145.313 37.258 C 147.354 38.266,149.371 39.084,149.795 39.077 C 150.552 39.063,247.579 135.584,248.519 137.286 C 248.843 137.872,248.814 138.085,248.396 138.208 C 247.543 138.458,139.045 246.962,138.645 247.965 C 138.362 248.675,138.147 248.781,137.601 248.478 C 135.935 247.553,39.063 150.145,39.077 149.407 C 39.084 148.981,38.305 147.051,37.346 145.117 C 33.495 137.360,31.142 129.413,30.637 122.461 C 30.513 120.742,30.277 118.432,30.115 117.327 C 29.743 114.802,29.903 110.848,30.680 103.320 C 30.954 100.673,31.469 98.315,32.598 94.531 C 32.951 93.350,33.260 92.119,33.285 91.797 C 33.310 91.475,33.653 90.634,34.048 89.930 C 34.443 89.225,34.766 88.414,34.766 88.128 C 34.766 87.434,37.486 82.176,38.955 80.032 C 39.600 79.091,40.262 77.881,40.426 77.344 C 40.805 76.100,74.470 42.272,76.599 40.994 C 77.474 40.469,79.015 39.506,80.023 38.855 C 82.061 37.539,87.629 34.778,90.039 33.890 C 93.668 32.552,94.459 32.309,96.875 31.789 C 105.704 29.888,113.787 29.389,121.094 30.292 " stroke="none" fill="#9474b4" fill-rule="evenodd"></path><path id="path8" d="M111.523 27.727 C 110.539 27.985,110.617 28.012,112.007 27.893 C 112.918 27.814,114.119 27.924,114.675 28.135 C 115.333 28.385,115.915 28.387,116.340 28.139 C 116.883 27.822,116.821 27.756,115.967 27.746 C 115.403 27.740,114.436 27.664,113.818 27.577 C 113.201 27.490,112.168 27.558,111.523 27.727 M103.906 28.502 C 103.161 28.731,103.361 28.791,104.750 28.757 C 105.751 28.733,106.366 28.584,106.117 28.425 C 105.584 28.086,105.222 28.099,103.906 28.502 M117.284 28.352 C 117.556 28.624,124.577 28.780,124.411 28.510 C 124.333 28.385,122.656 28.256,120.684 28.224 C 118.713 28.193,117.183 28.250,117.284 28.352 M125.574 28.925 C 125.481 29.075,126.311 29.318,127.418 29.465 C 129.601 29.755,132.750 30.532,134.498 31.213 C 135.103 31.448,135.894 31.629,136.256 31.614 C 136.784 31.593,136.759 31.526,136.133 31.274 C 133.128 30.069,125.866 28.453,125.574 28.925 M91.211 31.449 C 86.830 32.960,86.080 33.282,87.500 33.041 C 88.430 32.884,93.855 31.129,95.508 30.451 C 97.688 29.557,94.656 30.262,91.211 31.449 M137.354 32.111 C 137.460 32.282,138.004 32.422,138.565 32.422 C 139.125 32.422,139.452 32.290,139.291 32.129 C 138.896 31.734,137.111 31.718,137.354 32.111 M141.395 33.572 C 141.926 33.980,142.494 34.232,142.657 34.131 C 143.042 33.893,144.375 34.603,146.144 35.989 C 146.923 36.600,148.593 37.480,149.855 37.944 C 152.061 38.757,250.773 136.315,250.784 137.695 C 250.786 137.910,250.030 138.789,249.103 139.648 C 248.177 140.508,247.780 140.926,248.221 140.578 C 248.662 140.230,249.538 139.702,250.166 139.406 C 250.795 139.110,251.388 138.626,251.485 138.330 C 251.840 137.243,151.590 37.625,149.887 37.373 C 149.073 37.252,147.579 36.552,146.567 35.818 C 144.349 34.208,143.252 33.617,141.645 33.169 L 140.430 32.830 141.395 33.572 M84.079 34.350 C 81.662 35.612,80.985 36.167,82.621 35.545 C 83.885 35.065,86.328 33.629,86.328 33.367 C 86.328 33.161,86.495 33.088,84.079 34.350 M78.046 37.849 C 75.744 39.160,75.312 39.576,76.787 39.062 C 77.415 38.842,78.457 38.232,79.102 37.705 C 80.573 36.502,80.360 36.531,78.046 37.849 M56.977 57.715 C 44.467 70.267,38.645 76.373,38.354 77.246 C 37.766 79.013,38.109 78.831,39.091 76.855 C 39.639 75.753,45.908 69.191,57.749 57.324 C 67.558 47.495,75.491 39.453,75.380 39.453 C 75.268 39.453,66.986 47.671,56.977 57.715 M35.546 81.837 C 35.081 82.589,34.759 83.378,34.831 83.589 C 34.902 83.801,35.346 83.186,35.817 82.222 C 36.840 80.125,36.715 79.946,35.546 81.837 M33.271 86.230 C 32.706 87.333,32.313 89.419,32.831 88.566 C 33.062 88.185,33.318 87.526,33.400 87.100 C 33.482 86.674,33.658 86.150,33.790 85.936 C 33.922 85.722,33.938 85.547,33.826 85.547 C 33.713 85.547,33.464 85.854,33.271 86.230 M31.631 90.455 C 31.213 91.556,31.116 92.842,31.479 92.479 C 31.768 92.190,32.398 89.453,32.176 89.453 C 32.086 89.453,31.840 89.904,31.631 90.455 M30.752 93.262 C 30.667 93.423,30.374 94.609,30.101 95.898 C 29.827 97.188,29.446 98.752,29.255 99.375 C 28.876 100.607,28.783 102.207,29.109 101.880 C 29.221 101.768,29.571 100.377,29.887 98.788 C 30.204 97.199,30.621 95.239,30.815 94.434 C 31.142 93.074,31.115 92.569,30.752 93.262 M28.461 106.152 C 28.275 108.475,28.261 109.760,28.423 109.598 C 28.674 109.347,28.935 105.469,28.701 105.469 C 28.599 105.469,28.491 105.776,28.461 106.152 M27.971 110.589 C 27.530 111.977,27.477 113.450,27.809 115.147 C 28.007 116.162,28.220 118.269,28.282 119.829 C 28.345 121.390,28.492 122.763,28.610 122.881 C 28.931 123.202,28.556 115.613,28.184 114.258 C 28.007 113.612,28.022 112.500,28.217 111.780 C 28.556 110.535,28.332 109.452,27.971 110.589 M28.997 125.781 C 28.997 126.533,29.077 126.841,29.176 126.465 C 29.274 126.089,29.274 125.474,29.176 125.098 C 29.077 124.722,28.997 125.029,28.997 125.781 M29.444 128.711 C 29.875 131.504,30.013 132.096,30.293 132.359 C 30.444 132.501,30.451 132.002,30.308 131.250 C 30.165 130.498,29.984 129.387,29.905 128.780 C 29.826 128.174,29.636 127.559,29.482 127.413 C 29.329 127.268,29.312 127.852,29.444 128.711 M30.745 133.984 C 30.867 134.736,31.113 135.615,31.292 135.938 C 31.866 136.972,31.667 135.094,31.064 133.789 L 30.523 132.617 30.745 133.984 M32.018 138.194 C 32.166 138.994,32.485 140.000,32.727 140.430 C 32.969 140.859,33.515 142.041,33.940 143.057 C 34.365 144.072,35.239 145.566,35.882 146.377 C 36.525 147.188,37.341 148.751,37.694 149.850 C 38.128 151.198,38.869 152.344,39.969 153.366 L 41.602 154.883 40.200 153.320 C 39.429 152.461,38.485 150.879,38.102 149.805 C 37.720 148.730,36.929 147.236,36.345 146.484 C 34.996 144.747,34.375 143.580,34.375 142.778 C 34.375 142.431,33.936 141.499,33.398 140.709 C 32.861 139.918,32.422 138.796,32.422 138.214 C 32.422 137.632,32.271 137.062,32.086 136.948 C 31.901 136.833,31.870 137.394,32.018 138.194 M135.728 249.121 C 137.784 251.297,138.782 251.645,139.439 250.416 C 140.106 249.171,139.902 249.028,138.859 250.007 L 137.875 250.932 135.832 249.001 L 133.789 247.070 135.728 249.121 " stroke="none" fill="#644c79" fill-rule="evenodd"></path></g></svg>